<svg width="1513" height="496" viewBox="0 0 1513 496" fill="none" xmlns="http://www.w3.org/2000/svg">
<path d="M174.892 178.139C174.518 161.151 159.745 151.689 135.361 152.481C115.332 153.144 103.996 160.135 103.975 171.674C103.932 189.882 156.994 193.8 170.043 196.252C221.789 205.843 276.607 220.379 276.35 276.107C276.103 331.76 223.191 373.036 140.745 386.224C54.4238 400.365 1.81121 368.872 0.890625 298.779C32.5224 294.84 64.1864 291.147 95.8824 287.7C97.5523 316.099 116.189 323.089 143.988 319.707C167.881 316.816 182.696 306.112 182.749 291.928C182.771 287.186 180.609 283.846 176.701 281.053C164.124 272.789 110.697 265.713 89.4276 260.639C45.1537 250.406 13.0509 236.04 13.0616 183.031C13.0509 124.392 63.6297 85.9309 138.615 86.5303C217.946 86.9585 263.558 118.911 264.179 174.414C234.409 175.549 204.651 176.791 174.892 178.139Z" fill="#4B8300"/>
<path d="M587.984 236.758C587.802 314.248 535.618 342.925 446.053 349.872C349.092 357.986 305.321 325.327 305.642 254.003C305.899 200.041 306.145 146.091 306.402 92.1293C338.077 92.0543 369.741 91.9901 401.416 91.9366C401.169 144.399 400.934 196.862 400.688 249.325C400.57 276.097 414.464 288.075 448.077 286.063C478.199 284.307 492.671 271.002 492.768 245.011C492.971 193.94 493.175 142.858 493.367 91.7867C525.042 91.7439 556.717 91.7118 588.38 91.6797C588.252 140.032 588.113 188.384 587.984 236.747V236.758Z" fill="#4B8300"/>
<path d="M800.211 91.6251C848.585 91.5929 910.949 107.018 911.11 163.913C911.174 190.428 893.34 213.474 865.402 222.948C896.862 229.553 908.305 262.544 910.981 284.295C912.02 292.923 913.069 301.562 914.107 310.2C915.006 318.839 915.906 329.533 922.05 337.004C890.557 335.72 859.043 334.81 827.529 334.253C823.579 327.37 822.691 318.839 821.813 311.335C821.374 306.786 820.924 302.236 820.486 297.687C817.831 269.759 812.125 248.446 767.541 248.318C754.139 248.285 740.737 248.318 727.335 248.371C727.324 276.824 727.303 305.266 727.292 333.718C695.778 333.932 664.264 334.51 632.75 335.442C632.921 254.184 633.093 172.926 633.253 91.6679C688.895 91.6358 744.548 91.6251 800.19 91.6358L800.211 91.6251ZM727.367 197.364C744.837 197.311 762.307 197.311 779.766 197.364C801.603 197.428 818.623 191.434 818.602 172.348C818.58 156.002 803.744 147.749 774.51 147.717C758.806 147.695 743.092 147.706 727.388 147.727C727.388 164.277 727.378 180.826 727.367 197.364Z" fill="#4B8300"/>
<path d="M1210.21 156.981C1155.74 155.408 1101.24 154.123 1046.74 153.117C1046.78 163.629 1046.82 174.13 1046.86 184.642C1096.31 185.99 1145.72 187.671 1195.12 189.705C1195.22 210.193 1195.31 230.682 1195.41 251.159C1146.02 247.927 1096.59 245.229 1047.11 243.088C1047.16 255.366 1047.22 267.644 1047.26 279.922C1103.3 282.92 1159.28 286.795 1215.19 291.526C1215.3 314.177 1215.41 336.828 1215.5 359.478C1128.38 349.662 1041.01 342.64 953.542 338.412C953.275 256.18 953.018 173.959 952.75 91.7266C1038.47 91.8122 1124.19 91.9514 1209.9 92.1547C1210 113.767 1210.11 135.38 1210.2 156.992L1210.21 156.981Z" fill="#E91E00"/>
<path d="M1509.29 172.819C1480.3 171.352 1451.31 169.971 1422.3 168.676C1422.45 241.841 1422.61 315.007 1422.76 388.172C1391.28 382.991 1359.74 378.174 1328.17 373.732C1327.92 304.067 1327.66 234.402 1327.4 164.737C1298.52 163.634 1269.62 162.607 1240.72 161.675C1240.61 138.522 1240.51 115.368 1240.41 92.2031C1330.05 92.4279 1419.67 92.7062 1509.29 93.0488V172.808V172.819Z" fill="#E91E00"/>
<path d="M27.9796 34.0296H49.2392V40.5663H27.9796V34.0296ZM28.5905 52.3567H52.7213V59.0156H20.6488V16.2522H51.8661V22.9111H28.5905V52.3567ZM74.8314 59.6265C71.4917 59.6265 68.2947 59.1582 65.2401 58.2214C62.1856 57.244 59.7623 56.0018 57.9704 54.4949L60.7194 48.3248C62.43 49.6688 64.5478 50.7888 67.0729 51.6848C69.5979 52.5807 72.1841 53.0287 74.8314 53.0287C77.0713 53.0287 78.8837 52.7844 80.2684 52.2957C81.6531 51.8069 82.6713 51.1553 83.323 50.3408C83.9746 49.4855 84.3004 48.5284 84.3004 47.4695C84.3004 46.1662 83.832 45.1277 82.8953 44.3539C81.9586 43.5393 80.7368 42.9081 79.2299 42.4601C77.7637 41.9713 76.1143 41.5233 74.2815 41.1161C72.4896 40.7088 70.6772 40.2404 68.8445 39.711C67.0525 39.1408 65.403 38.4281 63.8961 37.5728C62.43 36.6768 61.2285 35.4957 60.2918 34.0296C59.3551 32.5634 58.8867 30.6899 58.8867 28.4092C58.8867 26.0878 59.4976 23.97 60.7194 22.0558C61.982 20.1009 63.8758 18.5533 66.4009 17.4129C68.9667 16.2318 72.2045 15.6413 76.1143 15.6413C78.6801 15.6413 81.2255 15.9671 83.7506 16.6187C86.2757 17.2704 88.4749 18.2071 90.3484 19.4289L87.8437 25.5991C85.9295 24.4587 83.9542 23.6238 81.9179 23.0944C79.8815 22.5242 77.9266 22.2391 76.0532 22.2391C73.8539 22.2391 72.0619 22.5038 70.6772 23.0333C69.3332 23.5627 68.3354 24.2551 67.6838 25.1103C67.0729 25.9656 66.7674 26.9431 66.7674 28.0427C66.7674 29.346 67.2154 30.4049 68.1114 31.2194C69.0481 31.9932 70.2496 32.6041 71.7157 33.0521C73.2226 33.5001 74.8924 33.9481 76.7252 34.3961C78.5579 34.8034 80.3702 35.2717 82.1622 35.8012C83.9949 36.3306 85.6444 37.023 87.1106 37.8783C88.6175 38.7335 89.8189 39.8943 90.7149 41.3604C91.6516 42.8266 92.12 44.6797 92.12 46.9197C92.12 49.2004 91.4887 51.3182 90.2262 53.2731C89.0044 55.1873 87.1106 56.7349 84.5448 57.916C81.979 59.0564 78.7412 59.6265 74.8314 59.6265ZM108.073 59.0156V22.9722H93.9002V16.2522H130.188V22.9722H116.015V59.0156H108.073Z" fill="#FFF9F0"/>
<path d="M1367.02 59.0156V53.7007L1384 37.5728C1385.43 36.2288 1386.49 35.0477 1387.18 34.0296C1387.87 33.0114 1388.32 32.0747 1388.52 31.2194C1388.77 30.3234 1388.89 29.4885 1388.89 28.7147C1388.89 26.7598 1388.22 25.2529 1386.88 24.194C1385.53 23.0944 1383.56 22.5445 1380.95 22.5445C1378.87 22.5445 1376.98 22.9111 1375.27 23.6442C1373.6 24.3773 1372.15 25.4972 1370.93 27.0041L1365.37 22.7278C1367.04 20.4878 1369.28 18.7569 1372.09 17.5351C1374.94 16.2726 1378.12 15.6413 1381.62 15.6413C1384.72 15.6413 1387.4 16.1504 1389.69 17.1686C1392.01 18.146 1393.78 19.5511 1395 21.3838C1396.26 23.2165 1396.89 25.3954 1396.89 27.9205C1396.89 29.3052 1396.71 30.6899 1396.34 32.0747C1395.98 33.4187 1395.29 34.8441 1394.27 36.351C1393.25 37.8579 1391.76 39.5481 1389.81 41.4215L1375.21 55.2891L1373.56 52.2957H1398.54V59.0156H1367.02ZM1420.97 59.6265C1417.59 59.6265 1414.53 58.7713 1411.8 57.0607C1409.11 55.3502 1407 52.8658 1405.45 49.6077C1403.9 46.3088 1403.13 42.3175 1403.13 37.6339C1403.13 32.9503 1403.9 28.9794 1405.45 25.7212C1407 22.4224 1409.11 19.9176 1411.8 18.2071C1414.53 16.4966 1417.59 15.6413 1420.97 15.6413C1424.39 15.6413 1427.44 16.4966 1430.13 18.2071C1432.82 19.9176 1434.94 22.4224 1436.48 25.7212C1438.07 28.9794 1438.87 32.9503 1438.87 37.6339C1438.87 42.3175 1438.07 46.3088 1436.48 49.6077C1434.94 52.8658 1432.82 55.3502 1430.13 57.0607C1427.44 58.7713 1424.39 59.6265 1420.97 59.6265ZM1420.97 52.7233C1422.96 52.7233 1424.69 52.1938 1426.16 51.1349C1427.62 50.0353 1428.77 48.3655 1429.58 46.1255C1430.43 43.8855 1430.86 41.055 1430.86 37.6339C1430.86 34.1721 1430.43 31.3416 1429.58 29.1423C1428.77 26.9023 1427.62 25.2529 1426.16 24.194C1424.69 23.0944 1422.96 22.5445 1420.97 22.5445C1419.05 22.5445 1417.34 23.0944 1415.83 24.194C1414.37 25.2529 1413.21 26.9023 1412.35 29.1423C1411.54 31.3416 1411.13 34.1721 1411.13 37.6339C1411.13 41.055 1411.54 43.8855 1412.35 46.1255C1413.21 48.3655 1414.37 50.0353 1415.83 51.1349C1417.34 52.1938 1419.05 52.7233 1420.97 52.7233ZM1443.62 59.0156V53.7007L1460.61 37.5728C1462.03 36.2288 1463.09 35.0477 1463.78 34.0296C1464.48 33.0114 1464.92 32.0747 1465.13 31.2194C1465.37 30.3234 1465.49 29.4885 1465.49 28.7147C1465.49 26.7598 1464.82 25.2529 1463.48 24.194C1462.13 23.0944 1460.16 22.5445 1457.55 22.5445C1455.47 22.5445 1453.58 22.9111 1451.87 23.6442C1450.2 24.3773 1448.75 25.4972 1447.53 27.0041L1441.97 22.7278C1443.64 20.4878 1445.88 18.7569 1448.69 17.5351C1451.54 16.2726 1454.72 15.6413 1458.22 15.6413C1461.32 15.6413 1464.01 16.1504 1466.29 17.1686C1468.61 18.146 1470.38 19.5511 1471.6 21.3838C1472.86 23.2165 1473.5 25.3954 1473.5 27.9205C1473.5 29.3052 1473.31 30.6899 1472.95 32.0747C1472.58 33.4187 1471.89 34.8441 1470.87 36.351C1469.85 37.8579 1468.36 39.5481 1466.41 41.4215L1451.81 55.2891L1450.16 52.2957H1475.15V59.0156H1443.62ZM1493.9 59.6265C1490.89 59.6265 1487.94 59.1989 1485.04 58.3436C1482.19 57.4476 1479.79 56.2258 1477.84 54.6782L1481.2 48.508C1482.74 49.7706 1484.62 50.7888 1486.82 51.5626C1489.06 52.3364 1491.38 52.7233 1493.78 52.7233C1496.59 52.7233 1498.79 52.1328 1500.38 50.9517C1502.01 49.7706 1502.82 48.1822 1502.82 46.1866C1502.82 44.8426 1502.48 43.6615 1501.78 42.6433C1501.13 41.6252 1499.95 40.8514 1498.24 40.3219C1496.57 39.7924 1494.27 39.5277 1491.34 39.5277H1481.01L1483.21 16.2522H1508.32V22.9111H1486.14L1490.3 19.1235L1488.65 36.5343L1484.49 32.8078H1493.11C1497.34 32.8078 1500.74 33.3779 1503.31 34.5183C1505.92 35.6179 1507.81 37.1656 1508.99 39.1612C1510.21 41.1161 1510.82 43.3561 1510.82 45.8811C1510.82 48.3655 1510.21 50.6462 1508.99 52.7233C1507.77 54.8004 1505.9 56.4702 1503.37 57.7327C1500.89 58.9953 1497.73 59.6265 1493.9 59.6265Z" fill="#FFF9F0"/>
<path d="M511.708 474.597C506.805 474.597 502.427 473.576 498.575 471.533C494.781 469.432 491.804 466.572 489.645 462.953C487.485 459.334 486.405 455.219 486.405 450.608C486.405 445.939 487.485 441.824 489.645 438.263C491.804 434.644 494.781 431.813 498.575 429.771C502.427 427.728 506.805 426.706 511.708 426.706C516.26 426.706 520.259 427.64 523.702 429.508C527.204 431.317 529.86 434.002 531.67 437.563L523.265 442.466C521.864 440.248 520.142 438.613 518.099 437.563C516.114 436.512 513.955 435.987 511.62 435.987C508.935 435.987 506.513 436.57 504.353 437.738C502.194 438.905 500.501 440.598 499.275 442.816C498.05 444.975 497.437 447.573 497.437 450.608C497.437 453.643 498.05 456.27 499.275 458.488C500.501 460.647 502.194 462.311 504.353 463.478C506.513 464.645 508.935 465.229 511.62 465.229C513.955 465.229 516.114 464.704 518.099 463.653C520.142 462.603 521.864 460.968 523.265 458.75L531.67 463.653C529.86 467.155 527.204 469.869 523.702 471.796C520.259 473.663 516.26 474.597 511.708 474.597ZM555.853 479.325L533.615 427.232H544.997L562.332 468.469H556.729L574.502 427.232H585.008L562.595 479.325H555.853ZM564.783 468.731V490.969H553.752V468.731H564.783ZM618.521 474.597C614.727 474.597 611.254 473.722 608.102 471.971C605.008 470.22 602.528 467.593 600.66 464.091C598.851 460.531 597.946 456.036 597.946 450.608C597.946 445.121 598.821 440.627 600.572 437.125C602.382 433.623 604.833 431.025 607.927 429.333C611.02 427.582 614.552 426.706 618.521 426.706C623.132 426.706 627.188 427.698 630.69 429.683C634.251 431.668 637.052 434.44 639.095 438C641.197 441.561 642.247 445.763 642.247 450.608C642.247 455.453 641.197 459.684 639.095 463.303C637.052 466.863 634.251 469.636 630.69 471.62C627.188 473.605 623.132 474.597 618.521 474.597ZM592.605 490.969V427.232H603.024V438.263L602.674 450.696L603.549 463.128V490.969H592.605ZM617.295 465.229C619.921 465.229 622.256 464.645 624.299 463.478C626.4 462.311 628.064 460.618 629.29 458.4C630.515 456.182 631.128 453.585 631.128 450.608C631.128 447.573 630.515 444.975 629.29 442.816C628.064 440.598 626.4 438.905 624.299 437.738C622.256 436.57 619.921 435.987 617.295 435.987C614.668 435.987 612.304 436.57 610.203 437.738C608.102 438.905 606.438 440.598 605.213 442.816C603.987 444.975 603.374 447.573 603.374 450.608C603.374 453.585 603.987 456.182 605.213 458.4C606.438 460.618 608.102 462.311 610.203 463.478C612.304 464.645 614.668 465.229 617.295 465.229ZM674.414 474.597C669.512 474.597 665.134 473.576 661.282 471.533C657.488 469.432 654.511 466.572 652.351 462.953C650.192 459.334 649.112 455.219 649.112 450.608C649.112 445.939 650.192 441.824 652.351 438.263C654.511 434.644 657.488 431.813 661.282 429.771C665.134 427.728 669.512 426.706 674.414 426.706C678.967 426.706 682.965 427.64 686.409 429.508C689.911 431.317 692.567 434.002 694.376 437.563L685.971 442.466C684.57 440.248 682.849 438.613 680.806 437.563C678.821 436.512 676.662 435.987 674.327 435.987C671.642 435.987 669.22 436.57 667.06 437.738C664.9 438.905 663.208 440.598 661.982 442.816C660.756 444.975 660.143 447.573 660.143 450.608C660.143 453.643 660.756 456.27 661.982 458.488C663.208 460.647 664.9 462.311 667.06 463.478C669.22 464.645 671.642 465.229 674.327 465.229C676.662 465.229 678.821 464.704 680.806 463.653C682.849 462.603 684.57 460.968 685.971 458.75L694.376 463.653C692.567 467.155 689.911 469.869 686.409 471.796C682.965 473.663 678.967 474.597 674.414 474.597ZM718.56 479.325L696.322 427.232H707.703L725.039 468.469H719.435L737.208 427.232H747.715L725.301 479.325H718.56ZM727.49 468.731V490.969H716.459V468.731H727.49ZM755.312 473.984V427.232H791.208V436.512H763.717L766.256 434.061V473.984H755.312ZM818.397 426.706C823.358 426.706 827.736 427.728 831.529 429.771C835.323 431.755 838.3 434.557 840.46 438.176C842.678 441.794 843.787 445.939 843.787 450.608C843.787 455.219 842.678 459.363 840.46 463.04C838.3 466.659 835.323 469.49 831.529 471.533C827.736 473.576 823.387 474.597 818.484 474.597C813.581 474.597 809.204 473.576 805.351 471.533C801.557 469.49 798.552 466.659 796.334 463.04C794.174 459.363 793.094 455.219 793.094 450.608C793.094 445.939 794.174 441.794 796.334 438.176C798.552 434.557 801.557 431.755 805.351 429.771C809.204 427.728 813.552 426.706 818.397 426.706ZM818.397 435.024C815.887 435.024 813.61 435.52 811.568 436.512C809.525 437.446 807.832 438.818 806.49 440.627C805.205 442.378 804.33 444.479 803.863 446.931H833.018C832.609 444.479 831.705 442.378 830.304 440.627C828.961 438.818 827.269 437.446 825.226 436.512C823.241 435.52 820.965 435.024 818.397 435.024ZM818.484 466.192C820.994 466.192 823.241 465.725 825.226 464.791C827.269 463.799 828.961 462.427 830.304 460.676C831.705 458.867 832.609 456.737 833.018 454.285H803.863C804.33 456.737 805.235 458.867 806.577 460.676C807.92 462.427 809.612 463.799 811.655 464.791C813.698 465.725 815.974 466.192 818.484 466.192ZM854.492 473.984V427.232H865.436V446.23H888.988V427.232H899.932V473.984H888.988V455.511H865.436V473.984H854.492ZM946.938 454.285V446.405H972.328V454.285H946.938ZM953.329 426.531C958.349 426.531 962.784 427.582 966.637 429.683C970.489 431.726 973.524 434.557 975.742 438.176C977.96 441.736 979.069 445.88 979.069 450.608C979.069 455.277 977.96 459.451 975.742 463.128C973.524 466.747 970.489 469.607 966.637 471.708C962.784 473.751 958.349 474.772 953.329 474.772C949.126 474.772 945.274 474.072 941.772 472.671C938.27 471.27 935.351 469.257 933.017 466.63L939.321 460.501C941.188 462.311 943.231 463.682 945.449 464.616C947.726 465.55 950.206 466.017 952.891 466.017C956.043 466.017 958.815 465.375 961.209 464.091C963.602 462.749 965.499 460.91 966.899 458.575C968.3 456.24 969.001 453.585 969.001 450.608C969.001 447.573 968.3 444.917 966.899 442.641C965.499 440.306 963.602 438.497 961.209 437.212C958.815 435.87 956.043 435.199 952.891 435.199C950.206 435.199 947.726 435.666 945.449 436.6C943.231 437.533 941.188 438.934 939.321 440.802L933.017 434.673C935.351 432.047 938.27 430.033 941.772 428.632C945.274 427.232 949.126 426.531 953.329 426.531ZM997.676 473.984V433.885L1000.22 436.512H981.216V427.232H1024.99V436.512H1006.08L1008.62 433.885V473.984H997.676Z" fill="#FFF9F0"/>
<path d="M377.02 431.832L359.656 449.195L377.02 466.559L394.384 449.195L377.02 431.832Z" fill="#FFF9F0"/>
<path d="M1133.16 431.832L1115.8 449.195L1133.16 466.559L1150.52 449.195L1133.16 431.832Z" fill="#FFF9F0"/>
<rect x="364.785" y="34.1719" width="45.7414" height="45.7414" transform="rotate(-45 364.785 34.1719)" fill="#4B8300"/>
<rect x="464.539" y="34.1719" width="45.7414" height="45.7414" transform="rotate(-45 464.539 34.1719)" fill="#4B8300"/>
</svg>
