<svg width="1513" height="496" viewBox="0 0 1513 496" fill="none" xmlns="http://www.w3.org/2000/svg">
<path d="M174.892 178.155C174.518 161.167 159.745 151.704 135.361 152.496C115.332 153.16 103.996 160.15 103.975 171.69C103.932 189.898 156.994 193.816 170.043 196.267C221.789 205.858 276.607 220.395 276.35 276.123C276.103 331.775 223.191 373.052 140.745 386.24C54.4238 400.381 1.81121 368.888 0.890625 298.795C32.5224 294.856 64.1864 291.163 95.8824 287.716C97.5523 316.115 116.189 323.105 143.988 319.722C167.881 316.832 182.696 306.127 182.749 291.944C182.771 287.202 180.609 283.862 176.701 281.068C164.124 272.804 110.697 265.729 89.4276 260.655C45.1537 250.421 13.0509 236.056 13.0616 183.047C13.0509 124.408 63.6297 85.9465 138.615 86.546C217.946 86.9742 263.558 118.927 264.179 174.43C234.409 175.565 204.651 176.806 174.892 178.155Z" fill="#4B8300"/>
<path d="M587.984 236.773C587.802 314.263 535.618 342.941 446.053 349.888C349.092 358.002 305.321 325.343 305.642 254.018C305.899 200.057 306.145 146.106 306.402 92.1449C338.077 92.07 369.741 92.0057 401.416 91.9522C401.169 144.415 400.934 196.878 400.688 249.341C400.57 276.113 414.464 288.091 448.077 286.078C478.199 284.323 492.671 271.017 492.768 245.027C492.971 193.955 493.175 142.874 493.367 91.8024C525.042 91.7595 556.717 91.7274 588.38 91.6953C588.252 140.048 588.113 188.4 587.984 236.763V236.773Z" fill="#4B8300"/>
<path d="M800.211 91.6407C848.585 91.6086 910.949 107.034 911.11 163.928C911.174 190.443 893.34 213.49 865.402 222.964C896.862 229.568 908.305 262.56 910.981 284.311C912.02 292.939 913.069 301.577 914.107 310.216C915.006 318.854 915.906 329.548 922.05 337.02C890.557 335.735 859.043 334.826 827.529 334.269C823.579 327.386 822.691 318.854 821.813 311.351C821.374 306.801 820.924 302.252 820.486 297.702C817.831 269.774 812.125 248.462 767.541 248.333C754.139 248.301 740.737 248.333 727.335 248.387C727.324 276.839 727.303 305.281 727.292 333.734C695.778 333.948 664.264 334.526 632.75 335.457C632.921 254.199 633.093 172.941 633.253 91.6835C688.895 91.6514 744.548 91.6407 800.19 91.6514L800.211 91.6407ZM727.367 197.38C744.837 197.326 762.307 197.326 779.766 197.38C801.603 197.444 818.623 191.449 818.602 172.363C818.58 156.018 803.744 147.764 774.51 147.732C758.806 147.711 743.092 147.722 727.388 147.743C727.388 164.292 727.378 180.841 727.367 197.38Z" fill="#4B8300"/>
<path d="M1210.21 156.997C1155.74 155.423 1101.24 154.139 1046.74 153.133C1046.78 163.644 1046.82 174.145 1046.86 184.657C1096.31 186.006 1145.72 187.687 1195.12 189.721C1195.22 210.209 1195.31 230.697 1195.41 251.175C1146.02 247.942 1096.59 245.245 1047.11 243.104C1047.16 255.382 1047.22 267.66 1047.26 279.938C1103.3 282.935 1159.28 286.81 1215.19 291.542C1215.3 314.193 1215.41 336.843 1215.5 359.494C1128.38 349.678 1041.01 342.656 953.542 338.428C953.275 256.195 953.018 173.974 952.75 91.7422C1038.47 91.8278 1124.19 91.967 1209.9 92.1704C1210 113.783 1210.11 135.395 1210.2 157.008L1210.21 156.997Z" fill="#E91E00"/>
<path d="M1509.29 172.834C1480.3 171.368 1451.31 169.987 1422.3 168.692C1422.45 241.857 1422.61 315.022 1422.76 388.188C1391.28 383.007 1359.74 378.19 1328.17 373.747C1327.92 304.082 1327.66 234.417 1327.4 164.752C1298.52 163.65 1269.62 162.622 1240.72 161.691C1240.61 138.537 1240.51 115.383 1240.41 92.2188C1330.05 92.4435 1419.67 92.7219 1509.29 93.0644V172.824V172.834Z" fill="#E91E00"/>
<path d="M27.9796 34.0452H49.2392V40.5819H27.9796V34.0452ZM28.5905 52.3724H52.7213V59.0312H20.6488V16.2678H51.8661V22.9267H28.5905V52.3724ZM74.8314 59.6422C71.4917 59.6422 68.2947 59.1738 65.2401 58.2371C62.1856 57.2596 59.7623 56.0174 57.9704 54.5105L60.7194 48.3404C62.43 49.6844 64.5478 50.8044 67.0729 51.7004C69.5979 52.5964 72.1841 53.0444 74.8314 53.0444C77.0713 53.0444 78.8837 52.8 80.2684 52.3113C81.6531 51.8226 82.6713 51.1709 83.323 50.3564C83.9746 49.5011 84.3004 48.544 84.3004 47.4851C84.3004 46.1819 83.832 45.1433 82.8953 44.3695C81.9586 43.555 80.7368 42.9237 79.2299 42.4757C77.7637 41.987 76.1143 41.539 74.2815 41.1317C72.4896 40.7244 70.6772 40.2561 68.8445 39.7266C67.0525 39.1564 65.403 38.4437 63.8961 37.5884C62.43 36.6925 61.2285 35.5114 60.2918 34.0452C59.3551 32.579 58.8867 30.7056 58.8867 28.4249C58.8867 26.1034 59.4976 23.9856 60.7194 22.0714C61.982 20.1165 63.8758 18.5689 66.4009 17.4285C68.9667 16.2475 72.2045 15.6569 76.1143 15.6569C78.6801 15.6569 81.2255 15.9827 83.7506 16.6344C86.2757 17.286 88.4749 18.2227 90.3484 19.4445L87.8437 25.6147C85.9295 24.4743 83.9542 23.6394 81.9179 23.11C79.8815 22.5398 77.9266 22.2547 76.0532 22.2547C73.8539 22.2547 72.0619 22.5194 70.6772 23.0489C69.3332 23.5783 68.3354 24.2707 67.6838 25.126C67.0729 25.9812 66.7674 26.9587 66.7674 28.0583C66.7674 29.3616 67.2154 30.4205 68.1114 31.235C69.0481 32.0088 70.2496 32.6197 71.7157 33.0677C73.2226 33.5157 74.8924 33.9637 76.7252 34.4117C78.5579 34.819 80.3702 35.2874 82.1622 35.8168C83.9949 36.3463 85.6444 37.0386 87.1106 37.8939C88.6175 38.7492 89.8189 39.9099 90.7149 41.3761C91.6516 42.8422 92.12 44.6953 92.12 46.9353C92.12 49.216 91.4887 51.3338 90.2262 53.2887C89.0044 55.2029 87.1106 56.7505 84.5448 57.9316C81.979 59.072 78.7412 59.6422 74.8314 59.6422ZM108.073 59.0312V22.9878H93.9002V16.2678H130.188V22.9878H116.015V59.0312H108.073Z" fill="#6D1E00"/>
<path d="M1367.02 59.0312V53.7164L1384 37.5884C1385.43 36.2445 1386.49 35.0634 1387.18 34.0452C1387.87 33.027 1388.32 32.0903 1388.52 31.235C1388.77 30.339 1388.89 29.5041 1388.89 28.7303C1388.89 26.7754 1388.22 25.2685 1386.88 24.2096C1385.53 23.11 1383.56 22.5602 1380.95 22.5602C1378.87 22.5602 1376.98 22.9267 1375.27 23.6598C1373.6 24.3929 1372.15 25.5129 1370.93 27.0198L1365.37 22.7434C1367.04 20.5034 1369.28 18.7725 1372.09 17.5507C1374.94 16.2882 1378.12 15.6569 1381.62 15.6569C1384.72 15.6569 1387.4 16.166 1389.69 17.1842C1392.01 18.1616 1393.78 19.5667 1395 21.3994C1396.26 23.2322 1396.89 25.4111 1396.89 27.9361C1396.89 29.3209 1396.71 30.7056 1396.34 32.0903C1395.98 33.4343 1395.29 34.8597 1394.27 36.3666C1393.25 37.8735 1391.76 39.5637 1389.81 41.4372L1375.21 55.3047L1373.56 52.3113H1398.54V59.0312H1367.02ZM1420.97 59.6422C1417.59 59.6422 1414.53 58.7869 1411.8 57.0764C1409.11 55.3658 1407 52.8815 1405.45 49.6233C1403.9 46.3244 1403.13 42.3332 1403.13 37.6495C1403.13 32.9659 1403.9 28.995 1405.45 25.7369C1407 22.438 1409.11 19.9333 1411.8 18.2227C1414.53 16.5122 1417.59 15.6569 1420.97 15.6569C1424.39 15.6569 1427.44 16.5122 1430.13 18.2227C1432.82 19.9333 1434.94 22.438 1436.48 25.7369C1438.07 28.995 1438.87 32.9659 1438.87 37.6495C1438.87 42.3332 1438.07 46.3244 1436.48 49.6233C1434.94 52.8815 1432.82 55.3658 1430.13 57.0764C1427.44 58.7869 1424.39 59.6422 1420.97 59.6422ZM1420.97 52.7389C1422.96 52.7389 1424.69 52.2095 1426.16 51.1506C1427.62 50.0509 1428.77 48.3811 1429.58 46.1411C1430.43 43.9011 1430.86 41.0706 1430.86 37.6495C1430.86 34.1877 1430.43 31.3572 1429.58 29.1579C1428.77 26.918 1427.62 25.2685 1426.16 24.2096C1424.69 23.11 1422.96 22.5602 1420.97 22.5602C1419.05 22.5602 1417.34 23.11 1415.83 24.2096C1414.37 25.2685 1413.21 26.918 1412.35 29.1579C1411.54 31.3572 1411.13 34.1877 1411.13 37.6495C1411.13 41.0706 1411.54 43.9011 1412.35 46.1411C1413.21 48.3811 1414.37 50.0509 1415.83 51.1506C1417.34 52.2095 1419.05 52.7389 1420.97 52.7389ZM1443.62 59.0312V53.7164L1460.61 37.5884C1462.03 36.2445 1463.09 35.0634 1463.78 34.0452C1464.48 33.027 1464.92 32.0903 1465.13 31.235C1465.37 30.339 1465.49 29.5041 1465.49 28.7303C1465.49 26.7754 1464.82 25.2685 1463.48 24.2096C1462.13 23.11 1460.16 22.5602 1457.55 22.5602C1455.47 22.5602 1453.58 22.9267 1451.87 23.6598C1450.2 24.3929 1448.75 25.5129 1447.53 27.0198L1441.97 22.7434C1443.64 20.5034 1445.88 18.7725 1448.69 17.5507C1451.54 16.2882 1454.72 15.6569 1458.22 15.6569C1461.32 15.6569 1464.01 16.166 1466.29 17.1842C1468.61 18.1616 1470.38 19.5667 1471.6 21.3994C1472.86 23.2322 1473.5 25.4111 1473.5 27.9361C1473.5 29.3209 1473.31 30.7056 1472.95 32.0903C1472.58 33.4343 1471.89 34.8597 1470.87 36.3666C1469.85 37.8735 1468.36 39.5637 1466.41 41.4372L1451.81 55.3047L1450.16 52.3113H1475.15V59.0312H1443.62ZM1493.9 59.6422C1490.89 59.6422 1487.94 59.2145 1485.04 58.3593C1482.19 57.4633 1479.79 56.2414 1477.84 54.6938L1481.2 48.5237C1482.74 49.7862 1484.62 50.8044 1486.82 51.5782C1489.06 52.352 1491.38 52.7389 1493.78 52.7389C1496.59 52.7389 1498.79 52.1484 1500.38 50.9673C1502.01 49.7862 1502.82 48.1978 1502.82 46.2022C1502.82 44.8582 1502.48 43.6771 1501.78 42.659C1501.13 41.6408 1499.95 40.867 1498.24 40.3375C1496.57 39.8081 1494.27 39.5433 1491.34 39.5433H1481.01L1483.21 16.2678H1508.32V22.9267H1486.14L1490.3 19.1391L1488.65 36.5499L1484.49 32.8234H1493.11C1497.34 32.8234 1500.74 33.3936 1503.31 34.5339C1505.92 35.6335 1507.81 37.1812 1508.99 39.1768C1510.21 41.1317 1510.82 43.3717 1510.82 45.8968C1510.82 48.3811 1510.21 50.6618 1508.99 52.7389C1507.77 54.816 1505.9 56.4858 1503.37 57.7483C1500.89 59.0109 1497.73 59.6422 1493.9 59.6422Z" fill="#6D1E00"/>
<path d="M511.708 474.613C506.805 474.613 502.427 473.591 498.575 471.549C494.781 469.447 491.804 466.587 489.645 462.968C487.485 459.35 486.405 455.235 486.405 450.624C486.405 445.954 487.485 441.839 489.645 438.279C491.804 434.66 494.781 431.829 498.575 429.786C502.427 427.743 506.805 426.722 511.708 426.722C516.26 426.722 520.259 427.656 523.702 429.524C527.204 431.333 529.86 434.018 531.67 437.578L523.265 442.481C521.864 440.263 520.142 438.629 518.099 437.578C516.114 436.528 513.955 436.002 511.62 436.002C508.935 436.002 506.513 436.586 504.353 437.753C502.194 438.921 500.501 440.613 499.275 442.831C498.05 444.991 497.437 447.588 497.437 450.624C497.437 453.659 498.05 456.285 499.275 458.503C500.501 460.663 502.194 462.326 504.353 463.494C506.513 464.661 508.935 465.245 511.62 465.245C513.955 465.245 516.114 464.719 518.099 463.669C520.142 462.618 521.864 460.984 523.265 458.766L531.67 463.669C529.86 467.171 527.204 469.885 523.702 471.811C520.259 473.679 516.26 474.613 511.708 474.613ZM555.853 479.341L533.615 427.247H544.997L562.332 468.484H556.729L574.502 427.247H585.008L562.595 479.341H555.853ZM564.783 468.747V490.985H553.752V468.747H564.783ZM618.521 474.613C614.727 474.613 611.254 473.737 608.102 471.986C605.008 470.235 602.528 467.609 600.66 464.107C598.851 460.546 597.946 456.052 597.946 450.624C597.946 445.137 598.821 440.643 600.572 437.141C602.382 433.638 604.833 431.041 607.927 429.348C611.02 427.597 614.552 426.722 618.521 426.722C623.132 426.722 627.188 427.714 630.69 429.699C634.251 431.683 637.052 434.456 639.095 438.016C641.197 441.577 642.247 445.779 642.247 450.624C642.247 455.468 641.197 459.7 639.095 463.319C637.052 466.879 634.251 469.652 630.69 471.636C627.188 473.621 623.132 474.613 618.521 474.613ZM592.605 490.985V427.247H603.024V438.279L602.674 450.711L603.549 463.144V490.985H592.605ZM617.295 465.245C619.921 465.245 622.256 464.661 624.299 463.494C626.4 462.326 628.064 460.634 629.29 458.416C630.515 456.198 631.128 453.6 631.128 450.624C631.128 447.588 630.515 444.991 629.29 442.831C628.064 440.613 626.4 438.921 624.299 437.753C622.256 436.586 619.921 436.002 617.295 436.002C614.668 436.002 612.304 436.586 610.203 437.753C608.102 438.921 606.438 440.613 605.213 442.831C603.987 444.991 603.374 447.588 603.374 450.624C603.374 453.6 603.987 456.198 605.213 458.416C606.438 460.634 608.102 462.326 610.203 463.494C612.304 464.661 614.668 465.245 617.295 465.245ZM674.414 474.613C669.512 474.613 665.134 473.591 661.282 471.549C657.488 469.447 654.511 466.587 652.351 462.968C650.192 459.35 649.112 455.235 649.112 450.624C649.112 445.954 650.192 441.839 652.351 438.279C654.511 434.66 657.488 431.829 661.282 429.786C665.134 427.743 669.512 426.722 674.414 426.722C678.967 426.722 682.965 427.656 686.409 429.524C689.911 431.333 692.567 434.018 694.376 437.578L685.971 442.481C684.57 440.263 682.849 438.629 680.806 437.578C678.821 436.528 676.662 436.002 674.327 436.002C671.642 436.002 669.22 436.586 667.06 437.753C664.9 438.921 663.208 440.613 661.982 442.831C660.756 444.991 660.143 447.588 660.143 450.624C660.143 453.659 660.756 456.285 661.982 458.503C663.208 460.663 664.9 462.326 667.06 463.494C669.22 464.661 671.642 465.245 674.327 465.245C676.662 465.245 678.821 464.719 680.806 463.669C682.849 462.618 684.57 460.984 685.971 458.766L694.376 463.669C692.567 467.171 689.911 469.885 686.409 471.811C682.965 473.679 678.967 474.613 674.414 474.613ZM718.56 479.341L696.322 427.247H707.703L725.039 468.484H719.435L737.208 427.247H747.715L725.301 479.341H718.56ZM727.49 468.747V490.985H716.459V468.747H727.49ZM755.312 474V427.247H791.208V436.528H763.717L766.256 434.076V474H755.312ZM818.397 426.722C823.358 426.722 827.736 427.743 831.529 429.786C835.323 431.771 838.3 434.572 840.46 438.191C842.678 441.81 843.787 445.954 843.787 450.624C843.787 455.235 842.678 459.379 840.46 463.056C838.3 466.675 835.323 469.506 831.529 471.549C827.736 473.591 823.387 474.613 818.484 474.613C813.581 474.613 809.204 473.591 805.351 471.549C801.557 469.506 798.552 466.675 796.334 463.056C794.174 459.379 793.094 455.235 793.094 450.624C793.094 445.954 794.174 441.81 796.334 438.191C798.552 434.572 801.557 431.771 805.351 429.786C809.204 427.743 813.552 426.722 818.397 426.722ZM818.397 435.039C815.887 435.039 813.61 435.535 811.568 436.528C809.525 437.462 807.832 438.833 806.49 440.643C805.205 442.394 804.33 444.495 803.863 446.946H833.018C832.609 444.495 831.705 442.394 830.304 440.643C828.961 438.833 827.269 437.462 825.226 436.528C823.241 435.535 820.965 435.039 818.397 435.039ZM818.484 466.208C820.994 466.208 823.241 465.741 825.226 464.807C827.269 463.815 828.961 462.443 830.304 460.692C831.705 458.883 832.609 456.752 833.018 454.301H803.863C804.33 456.752 805.235 458.883 806.577 460.692C807.92 462.443 809.612 463.815 811.655 464.807C813.698 465.741 815.974 466.208 818.484 466.208ZM854.492 474V427.247H865.436V446.246H888.988V427.247H899.932V474H888.988V455.526H865.436V474H854.492ZM946.938 454.301V446.421H972.328V454.301H946.938ZM953.329 426.547C958.349 426.547 962.784 427.597 966.637 429.699C970.489 431.741 973.524 434.572 975.742 438.191C977.96 441.752 979.069 445.896 979.069 450.624C979.069 455.293 977.96 459.466 975.742 463.144C973.524 466.762 970.489 469.622 966.637 471.724C962.784 473.767 958.349 474.788 953.329 474.788C949.126 474.788 945.274 474.088 941.772 472.687C938.27 471.286 935.351 469.272 933.017 466.646L939.321 460.517C941.188 462.326 943.231 463.698 945.449 464.632C947.726 465.566 950.206 466.033 952.891 466.033C956.043 466.033 958.815 465.391 961.209 464.107C963.602 462.764 965.499 460.926 966.899 458.591C968.3 456.256 969.001 453.6 969.001 450.624C969.001 447.588 968.3 444.933 966.899 442.656C965.499 440.322 963.602 438.512 961.209 437.228C958.815 435.886 956.043 435.214 952.891 435.214C950.206 435.214 947.726 435.681 945.449 436.615C943.231 437.549 941.188 438.95 939.321 440.818L933.017 434.689C935.351 432.063 938.27 430.049 941.772 428.648C945.274 427.247 949.126 426.547 953.329 426.547ZM997.676 474V433.901L1000.22 436.528H981.216V427.247H1024.99V436.528H1006.08L1008.62 433.901V474H997.676Z" fill="#6D1E00"/>
<path d="M377.02 431.847L359.656 449.211L377.02 466.575L394.384 449.211L377.02 431.847Z" fill="#6D1E00"/>
<path d="M1133.16 431.847L1115.8 449.211L1133.16 466.575L1150.52 449.211L1133.16 431.847Z" fill="#6D1E00"/>
<rect x="364.785" y="34.1875" width="45.7414" height="45.7414" transform="rotate(-45 364.785 34.1875)" fill="#4B8300"/>
<rect x="464.539" y="34.1875" width="45.7414" height="45.7414" transform="rotate(-45 464.539 34.1875)" fill="#4B8300"/>
</svg>
